<svg width="19" height="23" viewBox="0 0 19 23" fill="none" xmlns="http://www.w3.org/2000/svg">
<path d="M15.6643 12.1968C15.675 11.3622 15.8967 10.5438 16.3087 9.81782C16.7208 9.09187 17.3097 8.48193 18.0208 8.04475C17.5691 7.39959 16.9731 6.86865 16.2803 6.4941C15.5875 6.11955 14.8169 5.9117 14.0297 5.88707C12.3504 5.71081 10.7225 6.8919 9.86676 6.8919C8.99449 6.8919 7.67699 5.90457 6.25826 5.93376C5.34058 5.96341 4.44624 6.23027 3.66236 6.70832C2.87848 7.18638 2.2318 7.85934 1.78534 8.66163C-0.148664 12.0101 1.29393 16.9311 3.14654 19.6377C4.07344 20.9631 5.15672 22.4435 6.57417 22.391C7.96123 22.3335 8.47927 21.5065 10.1536 21.5065C11.8123 21.5065 12.2984 22.391 13.7446 22.3576C15.2329 22.3335 16.1707 21.0264 17.0651 19.6885C17.7311 18.7441 18.2435 17.7004 18.5835 16.596C17.7188 16.2303 16.9809 15.6181 16.4617 14.8358C15.9426 14.0535 15.6653 13.1357 15.6643 12.1968Z" fill="white"/>
<path d="M12.9326 4.10683C13.7441 3.13262 14.1439 1.88044 14.0471 0.616211C12.8073 0.746431 11.662 1.33899 10.8395 2.27582C10.4374 2.73349 10.1294 3.26592 9.93315 3.84269C9.7369 4.41946 9.65626 5.02925 9.69582 5.63721C10.316 5.6436 10.9295 5.50918 11.4901 5.2441C12.0508 4.97901 12.544 4.59016 12.9326 4.10683Z" fill="white"/>
</svg>
