<svg width="25" height="25" viewBox="0 0 25 25" fill="none" xmlns="http://www.w3.org/2000/svg">
<path d="M2.08542 12.5019C2.08601 14.9825 2.97133 17.3815 4.58225 19.2677C6.19318 21.154 8.42408 22.4038 10.874 22.7926V15.5124H8.23125V12.5019H10.8771V10.2103C10.8187 9.6739 10.8791 9.13125 11.054 8.62086C11.2289 8.11046 11.5141 7.64484 11.8892 7.25707C12.2644 6.8693 12.7203 6.56888 13.2246 6.37717C13.7289 6.18545 14.2693 6.10713 14.8073 6.14777C15.5885 6.16027 16.3698 6.23006 17.1406 6.3561V8.91756H15.824C15.6002 8.88825 15.3727 8.9096 15.1583 8.98004C14.9438 9.05048 14.748 9.1682 14.5852 9.3245C14.4224 9.48081 14.2968 9.6717 14.2177 9.88307C14.1386 10.0944 14.108 10.3209 14.1281 10.5457V12.5019H17.0146L16.5531 15.5134H14.1281V22.7926C16.0944 22.4818 17.9305 21.6142 19.4189 20.2923C20.9074 18.9705 21.9859 17.2498 22.5268 15.334C23.0677 13.4183 23.0484 11.3876 22.471 9.48249C21.8937 7.57738 20.7825 5.87759 19.2691 4.58437C17.7557 3.29116 15.9035 2.45867 13.9316 2.18548C11.9598 1.91229 9.95096 2.20983 8.14297 3.04287C6.33499 3.87592 4.80356 5.20959 3.73001 6.88597C2.65645 8.56236 2.08573 10.5113 2.08542 12.5019Z" fill="#F4A85D"/>
</svg>
