<svg width="25" height="26" viewBox="0 0 25 26" fill="none" xmlns="http://www.w3.org/2000/svg">
<path d="M1.43531 0.537932C1.10739 0.930004 0.941819 1.43263 0.972507 1.94283V24.0589C0.941729 24.5691 1.10731 25.0718 1.43531 25.4638L1.50931 25.5359L13.8983 13.147V12.8547L1.50931 0.465332L1.43531 0.537932Z" fill="url(#paint0_linear_1908_286)"/>
<path d="M18.0277 17.2787L13.8983 13.1473V12.855L18.0287 8.72461L18.1218 8.77771L23.0146 11.5578C24.4122 12.3518 24.4122 13.651 23.0146 14.4455L18.1218 17.2256L18.0277 17.2787Z" fill="url(#paint1_linear_1908_286)"/>
<path d="M18.1218 17.2249L13.8983 13.001L1.4353 25.4639C1.72007 25.715 2.08373 25.8587 2.46326 25.8699C2.8428 25.8811 3.2143 25.7592 3.5134 25.5253L18.1218 17.2249Z" fill="url(#paint2_linear_1908_286)"/>
<path d="M18.1218 8.77706L3.5134 0.476657C3.2143 0.242751 2.8428 0.120844 2.46326 0.132058C2.08373 0.143272 1.72007 0.286899 1.4353 0.538057L13.8983 13.0011L18.1218 8.77706Z" fill="url(#paint3_linear_1908_286)"/>
<path opacity="0.2" d="M18.0287 17.1318L3.5134 25.3791C3.22582 25.5981 2.87482 25.7175 2.51339 25.7194C2.15196 25.7214 1.79971 25.6057 1.5098 25.3898L1.4353 25.4643L1.5093 25.5364L1.5098 25.5359C1.79966 25.7519 2.15193 25.8677 2.51339 25.8657C2.87485 25.8638 3.22587 25.7443 3.5134 25.5252L18.1218 17.2248L18.0287 17.1318Z" fill="black"/>
<path opacity="0.12" d="M1.43528 25.3185C1.1074 24.9264 0.941831 24.4238 0.972484 23.9136V24.0597C0.941813 24.5699 1.10738 25.0725 1.43528 25.4646L1.50978 25.3901L1.43528 25.3185Z" fill="black"/>
<path opacity="0.12" d="M23.0146 14.2988L18.0287 17.132L18.1218 17.225L23.0146 14.4449C23.3024 14.32 23.5515 14.1202 23.7358 13.8663C23.9202 13.6125 24.0331 13.3138 24.0629 13.0015C24.001 13.2843 23.8741 13.5488 23.6921 13.774C23.5101 13.9992 23.2781 14.1789 23.0146 14.2988Z" fill="black"/>
<path opacity="0.25" d="M3.51343 0.623343L23.0146 11.7033C23.2783 11.8232 23.5103 12.0029 23.6923 12.2282C23.8743 12.4535 24.0012 12.7182 24.0629 13.0011C24.0334 12.6887 23.9205 12.3899 23.7362 12.1359C23.5518 11.8819 23.3026 11.6821 23.0146 11.5572L3.51343 0.477243C2.11583 -0.316857 0.972534 0.342743 0.972534 1.94354V2.08964C0.972534 0.488943 2.11583 -0.170657 3.51343 0.623343Z" fill="white"/>
<defs>
<linearGradient id="paint0_linear_1908_286" x1="12.7996" y1="1.70964" x2="-3.98276" y2="18.4921" gradientUnits="userSpaceOnUse">
<stop stop-color="#00A0FF"/>
<stop offset="0.00657" stop-color="#00A1FF"/>
<stop offset="0.2601" stop-color="#00BEFF"/>
<stop offset="0.5122" stop-color="#00D2FF"/>
<stop offset="0.7604" stop-color="#00DFFF"/>
<stop offset="1" stop-color="#00E3FF"/>
</linearGradient>
<linearGradient id="paint1_linear_1908_286" x1="24.8343" y1="13.0017" x2="0.637397" y2="13.0017" gradientUnits="userSpaceOnUse">
<stop stop-color="#FFE000"/>
<stop offset="0.4087" stop-color="#FFBD00"/>
<stop offset="0.7754" stop-color="#FFA500"/>
<stop offset="1" stop-color="#FF9C00"/>
</linearGradient>
<linearGradient id="paint2_linear_1908_286" x1="15.8269" y1="15.2961" x2="-6.93143" y2="38.0544" gradientUnits="userSpaceOnUse">
<stop stop-color="#FF3A44"/>
<stop offset="1" stop-color="#C31162"/>
</linearGradient>
<linearGradient id="paint3_linear_1908_286" x1="-1.70277" y1="-6.82376" x2="8.45975" y2="3.33876" gradientUnits="userSpaceOnUse">
<stop stop-color="#32A071"/>
<stop offset="0.0685" stop-color="#2DA771"/>
<stop offset="0.4762" stop-color="#15CF74"/>
<stop offset="0.8009" stop-color="#06E775"/>
<stop offset="1" stop-color="#00F076"/>
</linearGradient>
</defs>
</svg>
