<svg width="45" height="54" viewBox="0 0 45 54" fill="none" xmlns="http://www.w3.org/2000/svg">
<path fill-rule="evenodd" clip-rule="evenodd" d="M34.1268 11.129L34.144 11.1463C34.5417 11.7153 34.8876 12.3878 35.147 13.1466C35.4063 13.888 35.6484 14.664 35.8213 15.44C37.3258 21.5271 38.571 26.5278 39.5565 30.4768C40.525 34.4083 41.3032 37.5811 41.8738 40.0126C42.4271 42.4267 42.8249 44.22 43.0497 45.3754C43.2745 46.548 43.3956 47.3413 43.3956 47.7895C43.3956 48.3242 43.2745 48.6863 43.0152 48.8587C42.773 49.0484 42.3926 49.1519 41.8738 49.1519H38.9859C37.3778 49.1519 36.0808 48.9449 35.1296 48.5483C34.1613 48.169 33.4349 47.5826 32.9161 46.8412C32.4146 46.0824 32.0515 45.1857 31.8268 44.1167C31.602 43.0476 31.4118 41.8404 31.2562 40.4781H23.7339L26.8465 32.3217H29.9592L29.0427 26.5624L33.6425 14.5261C34.0575 13.4052 34.2131 12.2499 34.1268 11.129Z" fill="#373435"/>
<path d="M30.3517 13.1456C31.8924 9.11117 29.8615 4.59515 25.8156 3.05881C21.7697 1.5225 17.241 3.54764 15.7003 7.58212L3.29947 40.0557C1.7588 44.0902 3.78968 48.6062 7.83555 50.1426C11.8814 51.6788 16.4101 49.6536 17.9509 45.6193L30.3517 13.1456Z" fill="#F4A85D"/>
</svg>
